<svg xmlns="http://www.w3.org/2000/svg" viewBox="0 0 48 48"><rect width="3" height="3" x="12" y="44" fill="#ef6c00"/><rect width="3" height="3" x="33" y="44" fill="#ef6c00"/><rect width="30" height="44" x="9" y="1" fill="#ffa000"/><rect width="26" height="40" x="11" y="3" fill="#6d4c41"/><rect width="28" height="2" x="10" y="29" fill="#ffa000"/><rect width="3" height="8" x="34" y="21" fill="#afb42b"/><rect width="3" height="8" x="25" y="21" fill="#c0ca33"/><rect width="3" height="8" x="22" y="21" fill="#f57c00"/><rect width="3" height="9" x="34" y="6" fill="#ffca28"/><rect width="3" height="9.01" x="29.9" y="7.282" fill="#afb42b" transform="rotate(15.528 31.394 11.787)"/><rect width="3" height="8" x="28" y="21" fill="#f57c00"/><rect width="3" height="8" x="31" y="21" fill="#ffca28"/><rect width="3" height="9" x="11" y="34" fill="#afb42b"/><rect width="3" height="8" x="14" y="35" fill="#f57c00"/><rect width="3" height="8" x="17" y="35" fill="#ffca28"/><rect width="28" height="2" x="10" y="15" fill="#ffa000"/></svg>