<svg xmlns="http://www.w3.org/2000/svg" viewBox="0 0 48 48"><path fill="#ffb74d" d="M11.334,26.833L24.175,14.59L41.06,31.647L29.424,43.283c-2.297,2.297-6.056,2.258-8.397-0.083 l-9.161-8.181C9.522,32.674,9.483,28.916,11.334,26.833z"/><path fill="#ffb74d" d="M23.382,19.626c1.172,1.172,3.071,1.172,4.243,0l9.485-9.485c1.172-1.172,1.172-3.071,0-4.243l0,0 c-1.172-1.172-3.071-1.172-4.243,0l-9.485,9.485C22.21,16.555,22.21,18.455,23.382,19.626L23.382,19.626z"/><path fill="#ffb74d" d="M26.086,25.386c1.172,1.172,3.071,1.172,4.243,0l4.243-4.243c1.172-1.172,1.172-3.07,0-4.243l0,0 c-1.171-1.171-3.071-1.172-4.243,0l-4.243,4.243C24.915,22.315,24.915,24.214,26.086,25.386L26.086,25.386z"/><path fill="#ffb74d" d="M29.601,30.346c1.172,1.172,3.071,1.172,4.243,0l4.243-4.243c1.172-1.172,1.172-3.07,0-4.243l0,0 c-1.171-1.171-3.071-1.172-4.243,0l-4.243,4.244C28.429,27.275,28.429,29.175,29.601,30.346L29.601,30.346z M32.605,35.858 c1.172,1.172,3.07,1.172,4.243,0l4.243-4.243c1.172-1.172,1.172-3.07,0-4.243l0,0c-1.171-1.171-3.071-1.172-4.243,0l-4.243,4.243 C31.434,32.787,31.434,34.686,32.605,35.858L32.605,35.858z M10.02,22.334c-0.074-1.383-0.531-2.779-1.252-3.973l-1.577-2.602 c-0.311-0.508-0.235-1.152,0.176-1.563l0.477-0.477c1.26-1.26,3.513-0.684,4.428,0.231l0.984,0.984c2,2,3.647,4.287,4.425,6.99 l1.958,5.01l-9.616,3.739L10.02,22.334z"/><path fill="#ffa726" d="M30.453,16.798l-2.828,2.828c-0.39,0.39-0.391,1.023,0,1.414s1.024,0.39,1.414,0L30.453,16.798z M33.988,21.748l-2.828,2.828c-0.39,0.39-0.391,1.023,0,1.414s1.024,0.39,1.414,0L33.988,21.748z M36.848,27.364l-2.828,2.828 c-0.39,0.39-0.391,1.023,0,1.414c0.391,0.391,1.024,0.39,1.414,0L36.848,27.364z"/><path fill="#0288d1" d="M19.001,10c-0.552,0-1-0.448-1-1V3c0-0.552,0.448-1,1-1s1,0.448,1,1v6 C20.001,9.552,19.553,10,19.001,10z M24.001,11c-0.256,0-0.512-0.098-0.707-0.293c-0.391-0.391-0.391-1.023,0-1.414l4-4 c0.391-0.391,1.023-0.391,1.414,0s0.391,1.023,0,1.414l-4,4C24.513,10.902,24.257,11,24.001,11z M14.001,11 c-0.256,0-0.512-0.098-0.707-0.293l-4-4c-0.391-0.391-0.391-1.023,0-1.414s1.023-0.391,1.414,0l4,4 c0.391,0.391,0.391,1.023,0,1.414C14.513,10.902,14.257,11,14.001,11z"/></svg>