<svg xmlns="http://www.w3.org/2000/svg" viewBox="0 0 48 48"><path fill="#90caf9" d="M6,37c0-7,0-27,0-27h35v34h-8H13C13,44,6,44,6,37z"/><path fill="#42a5f5" d="M11,37h6V10h-6H6c0,0,0,20,0,27c0,1.498,0.332,2.66,0.836,3.586C7.842,37.015,11,37,11,37z"/><path fill="#bbdefb" d="M13,30h2V4h-2c0,0-7,0-7,7c0,6.303,0,18.97,0,26C6,30,13,30,13,30z"/><path fill="#546e7a" d="M42.2,14.1c0.1-0.4,0.1-0.8,0.1-1.1s0-0.8-0.1-1.1l2.3-1.7c0.2-0.2,0.3-0.5,0.2-0.7l-2.3-3.9	c-0.1-0.2-0.4-0.3-0.7-0.2l-2.6,1.2c-0.6-0.5-1.3-0.9-2-1.2l-0.3-2.9c0-0.3-0.3-0.5-0.5-0.5h-4.6c-0.2,0-0.5,0.2-0.5,0.5l-0.3,2.9	c-0.7,0.2-1.4,0.6-2,1.1l-2.6-1.2c-0.3-0.1-0.6,0-0.7,0.2l-2.3,4c-0.1,0.2,0,0.5,0.2,0.7l2.3,1.7c-0.1,0.4-0.1,0.8-0.1,1.1	s0,0.8,0.1,1.1l-2.3,1.7c-0.2,0.2-0.3,0.5-0.2,0.7l2.3,3.9c0.1,0.2,0.4,0.3,0.7,0.2l2.6-1.2c0.6,0.5,1.3,0.9,2,1.2l0.3,2.9	c0,0.3,0.3,0.5,0.5,0.5h4.5c0.3,0,0.5-0.2,0.5-0.5l0.3-2.9c0.7-0.3,1.4-0.7,2-1.2l2.6,1.2c0.3,0.1,0.6,0,0.7-0.2l2.3-3.9	c0.1-0.2,0.1-0.6-0.2-0.7L42.2,14.1z M34,18.2c-2.9,0-5.2-2.3-5.2-5.2s2.3-5.2,5.2-5.2s5.2,2.3,5.2,5.2S36.9,18.2,34,18.2"/><path fill="#455a64" d="M34,7c-3.3,0-6,2.7-6,6s2.7,6,6,6s6-2.7,6-6S37.3,7,34,7 M34,16c-1.7,0-3-1.3-3-3s1.3-3,3-3	s3,1.3,3,3S35.7,16,34,16"/></svg>