<svg xmlns="http://www.w3.org/2000/svg" viewBox="0 0 48 48"><path fill="#ffe082" d="M43,24H5v-3h38V24z"/><path fill="#ffe082" d="M43,43H5v-3h38V43z"/><rect width="14" height="14" x="5" y="7" fill="#ff9800"/><rect width="14" height="12" x="22" y="28" fill="#ff9800"/><rect width="10" height="16" x="33" y="5" fill="#ffb74d"/><rect width="14" height="7" x="19" y="14" fill="#f4511e"/><rect width="7" height="6" x="24" y="8" fill="#ff9800"/><rect width="7" height="8" x="36" y="32" fill="#f4511e"/><rect width="10" height="9" x="12" y="31" fill="#f4511e"/><rect width="3" height="3" x="8" y="7" fill="#ffb74d"/><rect width="3" height="2" x="23" y="14" fill="#ffb74d"/><rect width="3" height="2" x="38" y="32" fill="#ffb74d"/><rect width="2" height="2" x="28" y="8" fill="#ffb74d"/><rect width="7" height="6" x="5" y="34" fill="#ffb74d"/><rect width="2" height="2" x="7" y="34" fill="#ffcc80"/><rect width="7" height="7" x="5" y="27" fill="#ff9800"/><rect width="2" height="2" x="9" y="27" fill="#ffb74d"/><rect width="4" height="2" x="27" y="28" fill="#ffb74d"/><rect width="2" height="3" x="20" y="34" fill="#ffb74d"/><rect width="3" height="2" x="36" y="5" fill="#ffcc80"/><rect width="3" height="2" x="13" y="17" fill="#b86d00"/><rect width="3" height="2" x="38" y="17" fill="#b86d00"/><rect width="3" height="2" x="31" y="36" fill="#b86d00"/></svg>